<svg xmlns="http://www.w3.org/2000/svg" viewBox="-668 452.5 194.55184 176.07803">
<path class="st0"
   d="m -635.57733,461.15533 -23,27 v 7.7 c 0,9.7 9,18.3 17.1,18.3 9.8,0 17.9,-8.2 17.9,-18 0,9.8 7.9,18 17.6,18 9.7,0 17.4,-8.2 17.4,-18 0,9.8 8.4,18 18.1,18 9.8,0 17.9,-8.2 17.9,-18 0,9.8 7.9,18 17.7,18 9.8,0 17.3,-8.2 17.3,-18 0,9.8 8.4,18 18.2,18 9.8,0 17.8,-8.2 17.8,-18 v -8 l -25,-27 c -43.6,-0.1 -129,0 -129,0 z"
   style="fill:#fa5c5c;fill-opacity:1" />
<path class="st0"
   d="m -459.17733,527.85533 h 24.1 v 71.6 h -24.1 z m 12.2,-5.8 c -4.1,0 -7.2,-1 -9.4,-3.1 -2.2,-2 -3.3,-4.8 -3.3,-8.1 0,-3.2 1.1,-5.9 3.3,-8.1 2.2,-2.2 5.3,-3.3 9.4,-3.3 4.1,0 7.2,1.1 9.4,3.3 2.2,2.2 3.3,4.9 3.3,8.1 0,3.4 -1.1,6.1 -3.3,8.1 -2.2,2 -5.3,3.1 -9.4,3.1 m 47.1,78.8 c -7,0 -12.2,-1.9 -15.8,-5.6 -3.5,-3.7 -5.3,-8.9 -5.3,-15.6 v -33.9 h -9.6 v -17.9 h 9.6 v -17.5 h 24.1 v 17.5 h 15.7 v 17.9 h -15.7 v 30.4 c 0,2.2 0.5,3.8 1.4,4.7 0.9,0.9 2.4,1.4 4.3,1.4 2.6,0 5.5,-1.2 8.6,-3.5 l 5.5,15.9 c -2.8,1.9 -6,3.5 -9.6,4.6 -3.6,1 -8,1.6 -13.2,1.6 m 58.4,0 c -11.1,0 -19.8,-3.1 -26.1,-9.5 -6.4,-6.3 -9.5,-15.5 -9.5,-27.5 0,-8.7 1.8,-16 5.4,-22 3.7,-6.1 8.3,-10.2 13.8,-12.4 5.8,-2.2 11.2,-3.3 16.1,-3.3 6.2,0 11.4,1.2 15.6,3.7 4.2,2.5 7.2,5.2 9.2,8.1 2,2.9 3.4,5.2 4.3,6.8 l -16.7,10.8 c -1.5,-3.2 -3.2,-5.7 -5.1,-7.6 -1.8,-1.8 -4.1,-2.8 -6.7,-2.8 -3.7,0 -6.6,1.5 -8.7,4.4 -2.1,2.9 -3.2,7.3 -3.2,13.2 0,6.4 1.3,11.1 3.8,14.1 2.5,3 6.1,4.5 10.8,4.5 3.7,0 6.8,-0.7 9.2,-2 2.5,-1.4 4.8,-3.1 7,-5.2 l 7.7,18 c -2.3,1.9 -5.8,3.9 -10.3,5.7 -4.5,2 -10.1,3 -16.6,3 m 34.5,-1.5 v -97.1 h 24.3 v 29.5 c 2,-1.5 4.5,-2.7 7.4,-3.9 2.9,-1.1 6.4,-1.7 10.5,-1.7 8.5,0 14.9,2.4 19.1,7.3 4.2,4.8 6.3,11.7 6.3,20.5 v 45.4 h -24.3 v -42.5 c 0,-4.1 -0.8,-7.1 -2.3,-8.9 -1.6,-1.9 -3.6,-2.8 -6.1,-2.8 -2.1,0 -4.1,0.5 -6,1.5 -1.8,1 -3.4,2 -4.7,3.1 v 49.7 z m 86.9,1.5 c -3.9,0 -6.9,-1.1 -9.2,-3.3 -2.2,-2.2 -3.3,-5.1 -3.3,-8.6 0,-3.5 1.1,-6.4 3.3,-8.7 2.2,-2.3 5.3,-3.5 9.2,-3.5 3.7,0 6.6,1.2 8.9,3.5 2.2,2.3 3.3,5.2 3.3,8.7 0,3.5 -1.1,6.3 -3.3,8.6 -2.1,2.2 -5.1,3.3 -8.9,3.3 m 19.8,-73 h 24.1 v 71.6 h -24.1 z m 12.2,-5.8 c -4.1,0 -7.2,-1 -9.4,-3.1 -2.2,-2 -3.3,-4.8 -3.3,-8.1 0,-3.2 1.1,-5.9 3.3,-8.1 2.2,-2.2 5.3,-3.3 9.4,-3.3 4.1,0 7.2,1.1 9.4,3.3 2.2,2.2 3.3,4.9 3.3,8.1 0,3.4 -1.1,6.1 -3.3,8.1 -2.2,2 -5.3,3.1 -9.4,3.1 m 55.1,78.8 c -5.6,0 -10.6,-0.9 -15,-2.8 -4.4,-1.9 -8.1,-4.5 -11.1,-7.9 -3.1,-3.3 -5.4,-7.3 -7,-11.9 -1.6,-4.6 -2.4,-9.6 -2.4,-15.1 0,-8 1.7,-15.1 5.2,-21.1 3.6,-5.9 8.1,-10 13.5,-12.4 5.4,-2.3 11,-3.5 16.8,-3.5 8.3,0 15.2,1.9 20.7,5.8 5.5,3.9 9.4,8.7 11.6,14.5 2.199998,5.8 3.299998,11.3 3.299998,16.6 0,5.4 -0.8,10.4 -2.4,15.1 -1.599998,4.6 -3.899998,8.6 -6.999998,11.9 -3.1,3.3 -6.8,6 -11.2,7.9 -4.3,1.9 -9.4,2.9 -15,2.9 m 0,-18.6 c 4.1,0 7,-1.7 8.9,-5.2 1.8,-3.4 2.8,-8.1 2.8,-13.9 0,-5.5 -1,-9.9 -2.9,-13.2 -1.9,-3.3 -4.8,-4.9 -8.7,-4.9 -3.8,0 -6.6,1.6 -8.6,4.9 -1.9,3.3 -2.9,7.7 -2.9,13.2 0,5.8 0.9,10.4 2.8,13.9 1.9,3.4 4.7,5.2 8.6,5.2 m -490.6,-72.6 c -0.9,1.7 -2.2,3.1 -3.6,4.4 -3.7,3.7 -8.8,5.9 -14.3,5.9 -1.4,0 -5.1,-0.8 -5.1,-0.8 v 100 h 154 v -100.6 c -2.3,0.9 -4.2,1.4 -6.8,1.4 -5.6,0 -10.7,-2.3 -14.3,-5.9 -1.3,-1.3 -2.5,-2.8 -3.4,-4.5 -0.9,1.7 -2.1,3.2 -3.4,4.5 -3.7,3.7 -8.7,5.9 -14.3,5.9 -5.6,0 -10.7,-2.3 -14.3,-5.9 -1.3,-1.3 -2.5,-2.8 -3.4,-4.5 -0.9,1.7 -2.1,3.2 -3.4,4.5 -3.7,3.7 -8.8,5.9 -14.3,5.9 -5.6,0 -10.7,-2.3 -14.3,-5.9 -1.3,-1.3 -2.5,-2.8 -3.4,-4.5 -0.9,1.7 -2.1,3.2 -3.4,4.5 -3.7,3.7 -8.7,5.9 -14.3,5.9 -5.6,0 -10.7,-2.3 -14.3,-5.9 -1.7,-1.3 -2.8,-2.7 -3.7,-4.4 z m 22.2,18.5 c 6.7,0 11.5,4.4 13.2,10.9 h 37.1 c 1.7,-6.6 6.4,-10.9 13.2,-10.9 10.7,0 22.4,11 26.1,24.3 l 8.8,32 c 3.7,13.4 -2.1,24.3 -12.8,24.3 -9.4,0 -19.5,-8.4 -24.4,-19.6 h -58.8 c -4.8,11.1 -15,19.6 -24.4,19.6 -10.7,0 -16.4,-11 -12.8,-24.3 l 8.8,-32 c 3.6,-13.4 15.3,-24.3 26,-24.3 z"
   style="fill:#fa5c5c;fill-opacity:1" />
<path class="st0"
   d="m -582.87733,556.45533 -12.5,13.5 h 12.4 v 13.9 h 24.6 v -13.9 h 13.2 l -12.5,-13.5 -12.5,-13.5 z"
   style="fill:#fa5c5c;fill-opacity:1" />
</svg>